<svg xmlns="http://www.w3.org/2000/svg" xmlns:xlink="http://www.w3.org/1999/xlink" xml:space="preserve" version="1.1" style="shape-rendering:geometricPrecision;text-rendering:geometricPrecision;image-rendering:optimizeQuality;" viewBox="0 0 455.32 480.475" x="0px" y="0px" fill-rule="evenodd" clip-rule="evenodd"><defs><style type="text/css">
   
    .fil1 {fill:black}
    .fil0 {fill:black;fill-rule:nonzero}
   
  </style></defs><g><path class="fil0" d="M18.05 369.41l244.78 0 22.08 -52.85c-65.9,-35.39 -133.84,-67.05 -231.4,-47.78l-35.46 100.63zm272.65 -66.72l41.55 -99.48 -44.62 0c2.89,-4.95 5.75,-9.95 8.56,-14.98l87.81 0c3.08,0.02 5.97,1.94 7.05,5.01l63.65 180.71c2.12,4.85 -1.49,10.43 -6.88,10.43l-440.32 0c-5.13,-0.1 -8.79,-5.02 -7.05,-9.97l63.65 -180.69c0.88,-3.16 3.78,-5.49 7.22,-5.49l91.24 0c2.81,5.03 5.67,10.03 8.56,14.98l-94.52 0 -17.38 49.33c97.41,-16.76 165.53,14.78 231.48,50.15zm13.2 7.12c42.64,23.16 84.77,46.16 132.5,57.13l-57.69 -163.73 -30.27 0 -44.54 106.6zm88.98 59.6c-33.13,-12.22 -63.81,-28.98 -94.77,-45.72l-19.1 45.72 113.87 0z"/><path class="fil1" d="M229.38 0c49.08,0 88.87,39.79 88.87,88.87 0,45.54 -63.47,138.49 -88.87,180.38 -25.4,-41.89 -88.87,-134.84 -88.87,-180.38 0,-49.08 39.79,-88.87 88.87,-88.87zm0 40.41c26.77,0 48.46,21.69 48.46,48.46 0,26.77 -21.69,48.46 -48.46,48.46 -26.77,0 -48.46,-21.69 -48.46,-48.46 0,-26.77 21.69,-48.46 48.46,-48.46z"/></g><text x="0" y="399.38" fill="#000000" font-size="5px" font-weight="bold" font-family="'Helvetica Neue', Helvetica, Arial-Unicode, Arial, Sans-serif">Created by Frenggo</text><text x="0" y="404.38" fill="#000000" font-size="5px" font-weight="bold" font-family="'Helvetica Neue', Helvetica, Arial-Unicode, Arial, Sans-serif">from the Noun Project</text></svg>