<svg xmlns:dc="http://purl.org/dc/elements/1.1/" xmlns:cc="http://creativecommons.org/ns#" xmlns:rdf="http://www.w3.org/1999/02/22-rdf-syntax-ns#" xmlns:svg="http://www.w3.org/2000/svg" xmlns="http://www.w3.org/2000/svg" xmlns:sodipodi="http://sodipodi.sourceforge.net/DTD/sodipodi-0.dtd" xmlns:inkscape="http://www.inkscape.org/namespaces/inkscape" viewBox="0 0 100 125" version="1.1" x="0px" y="0px"><g transform="translate(0,-952.36216)"><path style="color:#000000;font-style:normal;font-variant:normal;font-weight:normal;font-stretch:normal;font-size:medium;line-height:normal;font-family:sans-serif;text-indent:0;text-align:start;text-decoration:none;text-decoration-line:none;text-decoration-style:solid;text-decoration-color:#000000;letter-spacing:normal;word-spacing:normal;text-transform:none;direction:ltr;block-progression:tb;writing-mode:lr-tb;baseline-shift:baseline;text-anchor:start;white-space:normal;clip-rule:nonzero;display:inline;overflow:visible;visibility:visible;opacity:1;isolation:auto;mix-blend-mode:normal;color-interpolation:sRGB;color-interpolation-filters:linearRGB;solid-color:#000000;solid-opacity:1;fill:#000000;fill-opacity:1;fill-rule:nonzero;stroke:none;stroke-width:4;stroke-linecap:butt;stroke-linejoin:miter;stroke-miterlimit:4;stroke-dasharray:none;stroke-dashoffset:0;stroke-opacity:1;color-rendering:auto;image-rendering:auto;shape-rendering:auto;text-rendering:auto;enable-background:accumulate" d="m 49.99959,962.86461 c -21.79261,0 -39.50194,17.7093 -39.50195,39.50189 -2e-5,7.7963 2.27645,15.0623 6.18554,21.1895 0.32934,0.5162 0.6692,1.0238 1.02149,1.5234 0.19072,0.2746 0.3844,0.5468 0.58203,0.8164 0.0472,0.063 0.095,0.1263 0.14258,0.1895 0.20534,0.2766 0.40655,0.5568 0.61914,0.8281 l 0.004,0 0.004,0.01 c 0.14837,0.1869 0.30724,0.3647 0.45899,0.5488 0.01,0.012 0.0196,0.023 0.0293,0.035 0.3953,0.4784 0.80132,0.9472 1.21875,1.4063 0.004,0 0.008,0.01 0.0117,0.012 0.29391,0.323 0.58425,0.6495 0.88867,0.9629 0.91706,0.9442 1.88003,1.8434 2.88672,2.6914 1.00733,0.8488 2.05749,1.6467 3.14453,2.3906 1.08681,0.7435 2.20964,1.4332 3.36524,2.0645 0.598,0.3268 1.20452,0.6366 1.81836,0.9316 0.002,9e-4 0.004,0 0.006,0 0.57057,0.2741 1.1471,0.5364 1.73046,0.7832 2.39926,1.0175 4.91819,1.8015 7.53125,2.3301 0.002,4e-4 0.004,0 0.006,0 0.0551,0.011 0.11089,0.018 0.16602,0.029 0.57578,0.1138 1.15581,0.2182 1.74023,0.3067 0.33628,0.051 0.6742,0.088 1.01172,0.1308 0.31003,0.039 0.61749,0.084 0.92969,0.1152 0.019,0 0.0377,0.01 0.0566,0.01 0.54748,0.055 1.09707,0.091 1.64649,0.123 0.089,0.01 0.17648,0.015 0.26562,0.02 0.003,2e-4 0.007,-10e-5 0.01,0 0.66047,0.034 1.32125,0.05 1.98242,0.051 0.013,0 0.026,0 0.0391,0 6.5e-4,0 0.001,0 0.002,0 10e-4,0 0.003,0 0.004,0 0.85959,-2e-4 1.7106,-0.039 2.55664,-0.094 0.0774,0 0.15511,0 0.23242,-0.01 l 0.0332,0 0.0332,0 c 0.10953,-0.012 0.21865,-0.027 0.32812,-0.039 1.15079,-0.092 2.28717,-0.2327 3.40821,-0.4218 0.0279,0 0.0561,-0.01 0.084,-0.01 l 0.0156,0 0.0156,0 c 0.17594,-0.03 0.3499,-0.071 0.52539,-0.1035 0.38593,-0.072 0.77042,-0.1476 1.15235,-0.2305 0.24101,-0.052 0.4807,-0.1092 0.7207,-0.166 0.38605,-0.091 0.77074,-0.1844 1.15234,-0.2871 0.10053,-0.027 0.20242,-0.048 0.30274,-0.076 0.1705,-0.047 0.33799,-0.1046 0.50781,-0.1543 0.35985,-0.1052 0.71867,-0.213 1.07422,-0.3281 0.25981,-0.084 0.51737,-0.1742 0.77539,-0.2637 0.35967,-0.1248 0.71738,-0.2519 1.07226,-0.3867 0.10477,-0.04 0.21197,-0.073 0.31641,-0.1133 0.15128,-0.059 0.29872,-0.1269 0.44922,-0.1875 0.33865,-0.1368 0.67583,-0.2759 1.00976,-0.4218 0.3017,-0.1313 0.60011,-0.2695 0.89844,-0.4082 0.24894,-0.1163 0.49806,-0.2323 0.74414,-0.3536 0.16661,-0.082 0.33646,-0.156 0.50196,-0.2402 0.21752,-0.1107 0.42911,-0.233 0.64453,-0.3477 0.15604,-0.083 0.312,-0.1665 0.46679,-0.2519 0.43465,-0.239 0.86372,-0.487 1.28907,-0.7422 0.10191,-0.061 0.20337,-0.1233 0.30468,-0.1855 0.23978,-0.1469 0.48409,-0.2856 0.72071,-0.4375 l 0.002,0 c 0.23973,-0.1541 0.47077,-0.3214 0.70703,-0.4805 0.008,-0.01 0.0172,-0.01 0.0254,-0.016 0.01,-0.01 0.0196,-0.013 0.0293,-0.02 0.51538,-0.3482 1.02121,-0.7099 1.51953,-1.082 0.31086,-0.2321 0.62567,-0.4578 0.92969,-0.6992 1.03099,-0.8183 2.02064,-1.6884 2.96484,-2.6055 l 0.002,0 c 0.94383,-0.9167 1.84178,-1.8803 2.68946,-2.8867 0.84877,-1.0073 1.64668,-2.0574 2.39062,-3.1445 l 0.0234,-0.035 0.0234,-0.035 c 0.0343,-0.055 0.0675,-0.1108 0.10156,-0.1661 4.26219,-6.3052 6.75197,-13.9019 6.75195,-22.0742 -10e-6,-21.79259 -17.70934,-39.50189 -39.50195,-39.50189 z m 0,4 c 19.63085,0 35.50195,15.8711 35.50195,35.50189 2e-5,6.2483 -1.61233,12.1111 -4.4375,17.2071 -2.08466,-2.2838 -4.52752,-4.0647 -7.18359,-5.252 3.93302,-2.562 6.54884,-7.0047 6.54883,-12.043 2e-5,-7.89459 -6.40775,-14.34959 -14.27344,-14.34959 -7.8657,0 -14.27346,6.455 -14.27344,14.34959 -10e-6,5.0317 2.60879,9.4697 6.53321,12.0332 -3.20609,1.4362 -6.09224,3.7448 -8.41602,6.7344 -2.30231,-2.9609 -5.16194,-5.3004 -8.39844,-6.7461 3.91379,-2.5655 6.51369,-6.9979 6.51367,-12.0215 3e-5,-7.89459 -6.40774,-14.34959 -14.27343,-14.34959 -7.86569,0 -14.27151,6.455 -14.27149,14.34959 -10e-6,5.0357 2.61202,9.4765 6.54102,12.0391 -2.65407,1.1875 -5.09456,2.9693 -7.17774,5.2519 -2.82385,-5.095 -4.43556,-10.9564 -4.43554,-17.2031 0,-19.63079 15.8711,-35.50189 35.50195,-35.50189 z m -16.1582,25.0644 c 5.69041,0 10.27345,4.6034 10.27343,10.34959 2e-5,5.7463 -4.58302,10.3496 -10.27343,10.3496 -5.69041,0 -10.2715,-4.6033 -10.27149,-10.3496 -10e-6,-5.74619 4.58108,-10.34959 10.27149,-10.34959 z m 32.31445,0 c 5.69041,0 10.27345,4.6034 10.27344,10.34959 10e-6,5.7463 -4.58303,10.3496 -10.27344,10.3496 -5.69041,0 -10.27345,-4.6033 -10.27344,-10.3496 -10e-6,-5.74619 4.58303,-10.34959 10.27344,-10.34959 z m -32.31445,24.69919 c 6.21183,0 11.90281,3.9562 15.16211,10.2168 0.25218,0.4838 0.48786,0.9811 0.70898,1.4883 0.057,0.1312 0.11498,0.2616 0.16992,0.3945 0.21471,0.5188 0.40898,1.0496 0.58985,1.5879 0.0475,0.142 0.0993,0.2803 0.14453,0.4239 0.17158,0.5421 0.31877,1.095 0.45508,1.6523 0.0334,0.1375 0.0761,0.2694 0.10742,0.4082 0.15852,0.6968 0.29056,1.4022 0.39258,2.1152 1.8e-4,0 -1.9e-4,0 0,0 0.13577,0.952 0.17227,1.9194 0.20507,2.8847 -0.592,0.03 -1.18452,0.062 -1.77734,0.062 -0.45251,2e-4 -0.90529,-0.016 -1.35742,-0.033 -0.13922,-0.01 -0.27883,0 -0.41797,-0.01 -0.004,-2e-4 -0.008,10e-5 -0.0117,0 -0.58714,-0.029 -1.17278,-0.074 -1.75781,-0.1329 -1.1779,-0.1183 -2.34762,-0.2959 -3.50781,-0.5312 -1.16029,-0.2352 -2.30846,-0.5271 -3.43946,-0.877 -1.13081,-0.3497 -2.24373,-0.7559 -3.33398,-1.2168 -1.09007,-0.461 -2.15671,-0.9774 -3.19531,-1.5449 -1.03859,-0.5674 -2.04864,-1.1852 -3.02539,-1.8535 -0.97698,-0.6686 -1.9189,-1.3856 -2.82422,-2.1484 -0.90509,-0.7624 -1.77124,-1.569 -2.59571,-2.418 -0.82194,-0.8461 -1.60226,-1.7326 -2.33593,-2.6563 l -0.002,0 c -2.5e-4,-3e-4 -0.002,4e-4 -0.002,0 -4.1e-4,0 -10e-4,0 -0.002,0 -6.9e-4,0 -7.8e-4,0 -0.002,-0.01 -0.32934,-0.4205 -0.62167,-0.8679 -0.93164,-1.3028 3.39634,-4.1401 7.88114,-6.493 12.58399,-6.5039 z m 32.31445,0 c 4.70619,0.011 9.19452,2.3659 12.5918,6.5118 -0.51499,0.7124 -1.02913,1.4252 -1.59571,2.0976 -0.76237,0.9051 -1.56906,1.7712 -2.41797,2.5957 -0.84911,0.8248 -1.74073,1.6078 -2.66796,2.3438 -0.92705,0.7361 -1.88886,1.4265 -2.88477,2.0664 -0.99609,0.6395 -2.02316,1.2288 -3.07812,1.7656 -1.05496,0.5369 -2.13695,1.0223 -3.24024,1.4512 -1.09029,0.4238 -2.20133,0.7913 -3.32812,1.1054 -0.0131,0 -0.026,0.01 -0.0391,0.012 -0.008,0 -0.017,0 -0.0254,0.01 -0.51552,0.1426 -1.03538,0.2714 -1.55664,0.3906 -0.071,0.016 -0.1417,0.033 -0.21289,0.049 -0.44929,0.1 -0.90057,0.1873 -1.35351,0.2695 -0.1308,0.024 -0.26129,0.048 -0.39258,0.07 -0.0535,0.01 -0.10694,0.01 -0.16016,0.018 -0.0152,-0.3513 -0.0237,-0.7024 -0.0508,-1.0527 -0.004,-0.06 -0.003,-0.12 -0.008,-0.1797 -0.0499,-0.5994 -0.11837,-1.197 -0.20313,-1.791 -1.8e-4,0 1.9e-4,0 0,0 -0.0997,-0.6969 -0.22969,-1.3868 -0.37695,-2.0722 -0.0213,-0.1 -0.0402,-0.1999 -0.0625,-0.2988 -0.0106,-0.047 -0.0184,-0.095 -0.0293,-0.1426 -0.14111,-0.6138 -0.30775,-1.218 -0.48632,-1.8184 -0.0253,-0.085 -0.0502,-0.1695 -0.0762,-0.2539 -0.0384,-0.125 -0.0713,-0.2527 -0.11132,-0.3769 -0.16919,-0.5261 -0.35714,-1.0425 -0.55469,-1.5547 -0.0208,-0.054 -0.0433,-0.1066 -0.0645,-0.1602 -0.0849,-0.2162 -0.1659,-0.4349 -0.25585,-0.6484 l -0.002,0 c -0.32524,-0.7706 -0.68159,-1.5221 -1.07031,-2.252 l -0.01,-0.018 -0.008,-0.017 c -0.007,-0.013 -0.016,-0.026 -0.0234,-0.039 3.45331,-5.1078 8.46038,-8.059 13.75391,-8.0703 l 0,0 z"/></g></svg>