<svg xmlns="http://www.w3.org/2000/svg" xmlns:xlink="http://www.w3.org/1999/xlink" version="1.1" x="0px" y="0px" viewBox="0 0 100 125" enable-background="new 0 0 100 100" xml:space="preserve"><path d="M22.5,28.8c-6.6,0-11.9,5.3-11.9,11.9S16,52.6,22.5,52.6s11.9-5.3,11.9-11.9S29.1,28.8,22.5,28.8z M22.5,48.6    c-4.4,0-7.9-3.5-7.9-7.9c0-4.4,3.5-7.9,7.9-7.9c4.4,0,7.9,3.5,7.9,7.9C30.4,45,26.9,48.6,22.5,48.6z"/><path d="M6.1,93.7H39c1.1,0,2-0.9,2-2V71.5c0-8.1-6.6-14.8-14.8-14.8h-7.4c-8.1,0-14.8,6.6-14.8,14.8v20.1    C4.1,92.8,5,93.7,6.1,93.7z M8.1,71.5c0-5.9,4.8-10.8,10.8-10.8h7.4c5.9,0,10.8,4.8,10.8,10.8v18.1H8.1V71.5z"/><path d="M65.6,40.7c0,6.6,5.3,11.9,11.9,11.9s11.9-5.3,11.9-11.9S84,28.8,77.5,28.8S65.6,34.1,65.6,40.7z M77.5,32.8    c4.4,0,7.9,3.5,7.9,7.9c0,4.4-3.5,7.9-7.9,7.9c-4.4,0-7.9-3.5-7.9-7.9C69.6,36.3,73.1,32.8,77.5,32.8z"/><path d="M61,93.7h32.9c1.1,0,2-0.9,2-2V71.5c0-8.1-6.6-14.8-14.8-14.8h-7.4c-8.1,0-14.8,6.6-14.8,14.8v20.1    C59,92.8,59.9,93.7,61,93.7z M63,71.5c0-5.9,4.8-10.8,10.8-10.8h7.4c5.9,0,10.8,4.8,10.8,10.8v18.1H63V71.5z"/><path d="M40.4,25.7c3.6,0,6.9-0.7,9.5-1.9c2.7,1.2,6.1,1.9,9.6,1.9c0.5,0,0.9,0,1.4,0c2.3,2,4.9,2.7,7.5,2.7    c3.3,0,6.3-1.1,8.1-2.2c0.8-0.5,1.2-1.4,1-2.3c-0.3-0.9-1.1-1.5-2-1.4c0,0-0.6-0.1-2.6-1.2c1.6-1.5,2.4-3.3,2.4-5.2    c0-5.4-7-9.7-15.8-9.7c-3.5,0-6.8,0.7-9.6,1.9c-2.6-1.2-5.9-1.9-9.5-1.9c-8.9,0-15.8,4.2-15.8,9.7c0,1.9,0.8,3.7,2.4,5.2    c-1.9,1.1-2.5,1.2-2.5,1.2c-0.9-0.1-1.8,0.5-2,1.4s0.1,1.8,0.9,2.3c0.2,0.1,3.9,2.2,8.2,2.2c2.9,0,5.4-0.9,7.4-2.7    C39.5,25.6,40,25.7,40.4,25.7z M71.4,16c0,1.2-1.1,2.6-2.9,3.6c-0.6,0.3-1,1-1,1.7c0,0.7,0.3,1.4,0.9,1.7c0.7,0.5,1.3,0.8,1.9,1.2    c-2.2,0.4-4.9,0.2-6.9-1.9c-0.1-0.1-0.1-0.2-0.2-0.2c-0.4-0.4-1-0.6-1.5-0.5c-0.7,0.1-1.3,0.1-2,0.1c-1.9,0-3.8-0.2-5.5-0.7    c1.4-1.4,2.2-3.1,2.2-5c0-1.8-0.8-3.5-2.2-5c1.7-0.5,3.5-0.7,5.5-0.7C66.5,10.3,71.4,13.3,71.4,16z M36.9,22.1    C36.9,22.2,36.8,22.2,36.9,22.1c-1.4,1.5-3.2,2.2-5.3,2.2c-0.6,0-1.2-0.1-1.8-0.2c0.6-0.3,1.2-0.7,1.9-1.2c0.6-0.4,0.9-1,0.9-1.7    c0-0.7-0.4-1.3-1-1.7c-1.9-1.1-2.9-2.4-2.9-3.6c0-2.7,4.9-5.7,11.8-5.7c3.4,0,6.4,0.7,8.5,1.8c0.1,0.1,0.2,0.1,0.3,0.2    c1.9,1.1,3.1,2.4,3.1,3.7c0,1.3-1.1,2.6-3,3.7c-0.1,0-0.2,0.1-0.3,0.2c-2.1,1.1-5,1.8-8.4,1.8c-0.6,0-1.2,0-2-0.1    C37.9,21.5,37.3,21.7,36.9,22.1z"/></svg>