<svg xmlns="http://www.w3.org/2000/svg" xmlns:xlink="http://www.w3.org/1999/xlink" width="100" height="100" viewBox="0 0 100 100"><rect width="100%" height="100%" fill="#FFFFFF"></rect><g transform="translate(50 50) scale(0.69 0.69) rotate(0) translate(-50 -50)" style="fill:#000000"><svg fill="#000000" xmlns="http://www.w3.org/2000/svg" xmlns:xlink="http://www.w3.org/1999/xlink" version="1.0" x="0px" y="0px" viewBox="0 0 24 24" enable-background="new 0 0 24 24" xml:space="preserve"><path fill="none" stroke="#000000" stroke-width="2" stroke-linejoin="round" stroke-miterlimit="10" d="M9,13  c-0.7,0.7-2.3,1.8-2.5,2c-0.7,0.7-0.7,1.8,0,2.5s1.8,0.7,2.5,0c0.1-0.1,1.3-1.9,2-2.5"></path><path fill="none" stroke="#000000" stroke-width="2" stroke-linejoin="round" stroke-miterlimit="10" d="M7,11  c-0.9,0.9-2.4,2-2.7,2.3c-1.8,1.8-1.8,4.6,0,6.4c1.8,1.8,4.6,1.8,6.4,0c0.3-0.3,1.2-1.5,2.3-2.7"></path><path fill="none" stroke="#000000" stroke-width="2" stroke-linejoin="round" stroke-miterlimit="10" d="M15,11  c0.7-0.7,2.3-1.8,2.5-2c0.7-0.7,0.7-1.8,0-2.5s-1.8-0.7-2.5,0c-0.1,0.1-1.3,1.9-2,2.5"></path><path fill="none" stroke="#000000" stroke-width="2" stroke-linejoin="round" stroke-miterlimit="10" d="M17,13  c0.9-0.9,2.4-2,2.7-2.3c1.8-1.8,1.8-4.6,0-6.4c-1.8-1.8-4.6-1.8-6.4,0C13,4.6,12.2,5.8,11,7"></path><line fill="none" stroke="#000000" stroke-width="2" stroke-linejoin="round" stroke-miterlimit="10" x1="6.1" y1="9.9" x2="14.1" y2="17.9"></line><path fill="none" stroke="#000000" stroke-width="2" stroke-linejoin="round" stroke-miterlimit="10" d="M8.4,7.6  c0,0,3.7,3.7,6.2,6.2C18,17.2,18,19.5,18,22"></path></svg></g></svg>